<!-- width="141" height="141" viewBox="0 0 141 141" -->
<svg fill="none" viewBox="0 0 141 141" xmlns="http://www.w3.org/2000/svg">
<circle cx="70.5" cy="70.5" r="69.9891" fill="white" stroke="#12141B" stroke-width="1.02174"/>
<g clip-path="url(#clip0_869_358)">
<path d="M70.4999 84.8294L68.2776 82.8064C60.3847 75.6491 55.1738 70.9287 55.1738 65.1354C55.1738 60.415 58.8827 56.7061 63.6032 56.7061C66.2699 56.7061 68.8294 57.9475 70.4999 59.9092C72.1705 57.9475 74.7299 56.7061 77.3967 56.7061C82.1171 56.7061 85.826 60.415 85.826 65.1354C85.826 70.9287 80.6151 75.6491 72.7222 82.8217L70.4999 84.8294Z" fill="#12141B"/>
</g>
<path d="M105.033 19.3748C104.405 19.0928 103.962 18.9747 103.704 19.0204C103.438 19.0684 103.128 19.3957 102.774 20.0024L98.6047 27.1498C98.2722 27.7199 98.1418 28.1416 98.2138 28.4149C98.2826 28.6934 98.603 29.0275 99.1749 29.4172L99.0009 29.7153L94.4583 27.0655L94.6322 26.7673C95.2416 27.0807 95.6955 27.2158 95.9941 27.1727C96.2874 27.1265 96.5897 26.8366 96.9009 26.3031L101.404 18.583C101.508 18.4052 101.562 18.2472 101.565 18.109C101.56 17.9731 101.464 17.8325 101.275 17.6873C101.164 17.6015 101.044 17.5178 100.917 17.4363C100.784 17.3517 100.534 17.2027 100.168 16.9891C98.7401 16.1561 97.7064 15.7109 97.067 15.6534C96.4276 15.5958 95.5903 15.9136 94.5551 16.6066L94.1471 16.3686L96.5564 14.0411L105.202 19.0845L105.033 19.3748Z" fill="#12141B"/>
<path d="M91.2915 16.4921C90.9466 17.6467 90.2899 18.5122 89.3214 19.0887C88.3454 19.6693 87.2801 19.7871 86.1255 19.4422C84.9767 19.099 84.1378 18.4377 83.6089 17.4581C83.0799 16.4786 83.0027 15.3622 83.377 14.1089C83.7219 12.9544 84.3873 12.0598 85.3731 11.4253C86.3589 10.7908 87.432 10.6469 88.5924 10.9935C89.7064 11.3263 90.527 12.0169 91.0543 13.0655C91.5816 14.1141 91.6606 15.2563 91.2915 16.4921ZM86.5251 18.9928C86.9835 19.1297 87.426 19.0976 87.8526 18.8964C88.5905 18.5418 89.1527 17.7175 89.5392 16.4237C89.8477 15.391 89.9034 14.3585 89.7061 13.3264C89.5031 12.2925 88.9867 11.6516 88.157 11.4038C87.5072 11.2097 86.919 11.3594 86.3924 11.853C85.8599 12.3449 85.449 13.0753 85.1595 14.0442C84.8597 15.0479 84.8006 16.0604 84.9821 17.0815C85.1637 18.1027 85.6781 18.7398 86.5251 18.9928Z" fill="#12141B"/>
<path d="M79.7374 9.54685C79.1782 9.54084 78.8012 9.60131 78.6063 9.72827C78.4107 9.86125 78.2894 10.1688 78.2422 10.6509L77.8436 14.7279C77.7852 15.3245 77.8009 15.755 77.8907 16.0193C77.9738 16.289 78.163 16.4383 78.4583 16.4672C78.5186 16.4731 78.6008 16.472 78.705 16.464C78.8026 16.4613 78.9069 16.4533 79.0177 16.4398L78.9885 16.7381C78.6332 16.825 78.2686 16.9141 77.8946 17.0053C77.5207 17.0965 77.2617 17.1624 77.1178 17.2031C76.8053 17.2881 76.4822 17.3874 76.1487 17.5008C76.1065 17.4966 76.0839 17.4792 76.0808 17.4485C76.0717 17.4172 76.0718 17.3533 76.0813 17.2569L76.2263 15.7744C75.7881 16.273 75.3765 16.6556 74.9915 16.9222C74.6004 17.1881 74.2121 17.3023 73.8264 17.2645C73.519 17.2345 73.278 17.1166 73.1035 16.9109C72.9283 16.7113 72.8543 16.4728 72.8814 16.1956C72.9055 15.9485 73.0012 15.748 73.1684 15.594C73.3295 15.4394 73.5216 15.373 73.7445 15.3948C73.9735 15.4172 74.1953 15.5453 74.4097 15.7792C74.618 16.0126 74.7885 16.1357 74.9211 16.1487C75.132 16.1693 75.408 16.0229 75.7489 15.7094C76.0893 15.402 76.2771 15.0675 76.3125 14.7059L76.7112 10.629C76.7619 10.1107 76.6767 9.73731 76.4557 9.50883C76.2341 9.28638 75.8424 9.15378 75.2808 9.11103L75.31 8.81271L79.7666 9.24853L79.7374 9.54685Z" fill="#12141B"/>
<path d="M65.9631 17.3894C65.1127 17.4652 64.3414 17.2361 63.6494 16.702C62.958 16.1739 62.5641 15.3701 62.4679 14.2905L68.2128 13.7784C68.0277 12.3845 67.6202 11.3935 66.9903 10.8052C66.3603 10.217 65.6533 9.95777 64.8692 10.0277C64.2359 10.0841 63.7169 10.2975 63.3123 10.668C62.9076 11.0384 62.5484 11.5446 62.2348 12.1865L61.9085 12.1062C62.0875 11.3182 62.4887 10.5681 63.1122 9.85597C63.7297 9.14438 64.53 8.74477 65.5131 8.65715C66.647 8.55609 67.5627 8.9061 68.2603 9.70718C68.9518 10.5088 69.3473 11.4675 69.4467 12.5833C69.5548 13.7956 69.2892 14.874 68.6499 15.8186C68.0107 16.7631 67.1151 17.2867 65.9631 17.3894ZM66.4289 16.6822C67.1165 16.6209 67.6141 16.2696 67.9217 15.6282C68.0857 15.2853 68.1878 14.8628 68.2282 14.3607L64.4103 14.701C64.5304 15.2982 64.6851 15.7373 64.8743 16.0183C65.2171 16.5227 65.7353 16.744 66.4289 16.6822Z" fill="#12141B"/>
<path d="M56.381 10.167C55.9511 10.367 55.6815 10.5479 55.5724 10.7095C55.4041 10.9568 55.4093 11.3283 55.5879 11.8239L57.1803 16.2415C57.3323 16.663 57.4888 16.9188 57.65 17.0087C57.8054 17.1007 58.0113 17.1005 58.2677 17.0081C58.3873 16.965 58.4764 16.9265 58.535 16.8925C58.5878 16.8606 58.649 16.816 58.7185 16.7588L58.8263 17.0578L58.285 17.4847C58.0895 17.6388 57.7732 17.9041 57.336 18.2805C56.8988 18.6569 56.666 18.8503 56.6375 18.8606C56.609 18.8708 56.5868 18.8627 56.5708 18.8363C56.5549 18.8099 56.5325 18.7568 56.5038 18.677L56.088 17.5235C55.7088 18.2395 55.3491 18.7682 55.0088 19.1097C54.6705 19.457 54.2849 19.7086 53.8519 19.8646C53.2652 20.0761 52.7262 20.0451 52.235 19.7716C51.9747 19.6209 51.718 19.3819 51.4649 19.0548C51.1973 19.634 50.9439 20.0826 50.7045 20.4006C50.2906 20.9488 49.8017 21.3246 49.2378 21.5279C48.3206 21.8585 47.5738 21.7061 46.9972 21.0707C46.6686 20.7128 46.3401 20.0782 46.0116 19.1667L44.7334 15.6207C44.5876 15.2162 44.3997 14.9718 44.1697 14.8873C43.9361 14.8106 43.5775 14.8337 43.094 14.9565L43.0139 14.7343L46.8676 13.3452L46.9538 13.5844C46.4746 13.8087 46.1859 14.0254 46.0875 14.2346C45.9834 14.4459 46.0166 14.788 46.187 15.2608L47.5145 18.9436C47.7137 19.4961 47.9203 19.8819 48.1344 20.1008C48.5136 20.4919 49.0108 20.5766 49.626 20.3549C49.9962 20.2214 50.3195 19.9665 50.5958 19.5901C50.7552 19.3717 50.9323 19.0504 51.127 18.6262L49.55 14.2513C49.3837 13.7899 49.1776 13.4683 48.9319 13.2866C48.6805 13.1069 48.2896 13.1029 47.7594 13.2748L47.6793 13.0526L51.6013 11.6389L51.6814 11.861C51.1649 12.1244 50.8675 12.3797 50.7892 12.6268C50.7109 12.8738 50.8083 13.3762 51.0814 14.1338L51.9438 16.5263C52.26 17.4036 52.5346 17.9869 52.7677 18.2762C53.1569 18.7667 53.6562 18.9021 54.2658 18.6824C54.6132 18.5571 54.9201 18.3371 55.1864 18.0223C55.4547 17.7131 55.6616 17.3586 55.8071 16.9586L54.1223 12.2846C53.9663 11.8517 53.7844 11.5793 53.5768 11.4675C53.3634 11.3577 53.0022 11.3914 52.4932 11.5684L52.4131 11.3463L56.3009 9.94484L56.381 10.167Z" fill="#12141B"/>
<path d="M38.4376 32.0665C38.6091 32.2624 38.6882 32.4909 38.6751 32.7518C38.6619 33.0127 38.5551 33.2308 38.3546 33.4062C38.1586 33.5777 37.9305 33.6525 37.6701 33.6309C37.4093 33.6177 37.1911 33.5109 37.0157 33.3104C36.8442 33.1144 36.7674 32.884 36.7851 32.6191C36.8022 32.3628 36.9087 32.1489 37.1047 31.9774C37.3052 31.802 37.5337 31.7229 37.79 31.74C38.0503 31.7617 38.2662 31.8705 38.4376 32.0665ZM31.7595 22.6668C31.3117 23.1389 31.0759 23.4901 31.0519 23.7202C31.0319 23.9549 31.2552 24.3389 31.7217 24.8721L34.5743 28.133C34.8334 28.4292 35.0333 28.6164 35.174 28.6944C35.4059 28.8215 35.6311 28.7893 35.8499 28.598C35.9 28.5541 35.9462 28.5057 35.9883 28.4527C36.0259 28.4037 36.1308 28.2477 36.3028 27.9845L36.4882 28.1964L36.278 28.5493C35.7077 29.5068 35.3231 30.1892 35.1242 30.5964C35.0445 30.7628 34.9864 30.8619 34.9499 30.8938C34.9129 30.8698 34.8784 30.8396 34.8465 30.8032L30.5526 25.8947C30.0981 25.3752 29.7516 25.1031 29.5129 25.0786C29.2697 25.0581 28.911 25.2229 28.4371 25.5732L28.2696 25.3818L31.5921 22.4754L31.7595 22.6668Z" fill="#12141B"/>
<path d="M24.2222 32.1196C23.8011 31.9891 23.4142 31.9818 23.0616 32.0975C22.7099 32.2217 22.4032 32.4505 22.1415 32.7839C21.7376 33.2982 21.6483 33.9364 21.8736 34.6985C22.1 35.4691 22.6704 36.2135 23.5847 36.9315C24.461 37.6196 25.2654 37.9434 25.998 37.9027C26.7268 37.8668 27.2875 37.5988 27.6802 37.0988C27.957 36.7464 28.0999 36.3389 28.1089 35.8764C28.1228 35.4176 28.0249 35.1059 27.8154 34.9413L24.2222 32.1196ZM21.7414 26.499C21.4184 26.9691 21.2911 27.3272 21.3596 27.5734C21.4243 27.8244 21.6304 28.0864 21.9781 28.3594L28.8358 33.7448C29.1978 34.029 29.4643 34.1651 29.6354 34.1532C29.8074 34.1497 29.9888 34.0266 30.1796 33.7837C30.2207 33.7313 30.2576 33.6794 30.2902 33.6281C30.3191 33.5815 30.3601 33.5097 30.4131 33.4128L30.6489 33.5979L30.3374 34.4504C30.3235 34.478 30.1119 35.0856 29.7027 36.2733C29.684 36.2972 29.659 36.3045 29.6277 36.2953C29.5975 36.2946 29.5681 36.2831 29.5395 36.2606L28.5751 35.5033C28.6426 36.0645 28.659 36.5239 28.6244 36.8817C28.5546 37.5198 28.342 38.065 27.9867 38.5174C27.4706 39.1746 26.7464 39.5183 25.8142 39.5485C24.8831 39.5871 23.9317 39.225 22.9602 38.4621C22.0077 37.7141 21.3677 36.7496 21.0403 35.5685C20.709 34.3922 20.8819 33.3731 21.5588 32.5111C21.7682 32.2444 21.9829 32.0396 22.2029 31.8967C22.5423 31.6705 22.9463 31.5335 23.4149 31.4857L21.079 29.6513C20.598 29.2736 20.241 29.1203 20.0081 29.1915C19.7752 29.2626 19.4321 29.5475 18.9789 30.0462L18.7288 29.8499L21.5056 26.3139L21.7414 26.499Z" fill="#12141B"/>
<path d="M18.9227 41.8546L18.7896 42.1232C18.1093 41.9415 17.5512 41.8745 17.1154 41.9221C16.3195 42.0007 15.7401 42.4063 15.3771 43.1388C15.1755 43.5457 15.1281 43.9209 15.2349 44.2645C15.3445 44.6161 15.5784 44.8807 15.9365 45.0581C16.1643 45.171 16.4177 45.2121 16.6965 45.1813C16.9753 45.1505 17.2998 45.0139 17.6699 44.7716L18.6424 44.1182C19.3312 43.6283 19.9353 43.316 20.4548 43.1815C20.9743 43.0469 21.4809 43.1019 21.9746 43.3466C22.5823 43.6477 22.9739 44.1121 23.1495 44.7397C23.325 45.3673 23.2502 46.0094 22.9249 46.6659C22.7824 46.9535 22.5722 47.2413 22.2943 47.5293C22.0137 47.8228 21.8627 47.9912 21.8412 48.0347C21.7928 48.1323 21.7714 48.2096 21.777 48.2664C21.7826 48.3233 21.8072 48.3828 21.8508 48.4449L21.754 48.6402L19.4551 47.572L19.5801 47.3197C20.1602 47.472 20.6424 47.5285 21.0268 47.4892C21.736 47.4217 22.248 47.0705 22.5625 46.4357C22.7507 46.0559 22.7819 45.6997 22.6562 45.367C22.5304 45.0344 22.3102 44.7901 21.9955 44.6342C21.4963 44.3868 20.8659 44.5408 20.1042 45.0959L18.9941 45.8839C17.792 46.7277 16.7732 46.9426 15.9377 46.5286C15.2975 46.2113 14.8935 45.7104 14.7259 45.0259C14.5555 44.3468 14.6626 43.6193 15.047 42.8434C15.2083 42.5179 15.4454 42.1758 15.7583 41.8173C16.0711 41.4587 16.2463 41.2414 16.284 41.1654C16.3162 41.1003 16.3201 41.0313 16.2954 40.9582C16.2762 40.8879 16.2408 40.823 16.1891 40.7636L16.294 40.552L18.9227 41.8546Z" fill="#12141B"/>
<path d="M19.1926 55.542L13.5666 54.0791C13.1681 53.9755 12.8342 53.9481 12.565 53.997C12.0632 54.098 11.7369 54.4386 11.5861 55.0188C11.4824 55.4173 11.513 55.8413 11.6776 56.2908C11.7678 56.5457 11.9128 56.818 12.1127 57.1078L16.93 58.3604C17.3812 58.4777 17.7 58.4668 17.8864 58.3276C18.0728 58.1883 18.2492 57.8588 18.4156 57.339L18.7057 57.4144L17.9674 60.2538L11.7788 58.6446C11.3803 58.5409 11.0866 58.5396 10.8977 58.6407C10.713 58.7491 10.5693 59.037 10.4665 59.5046L10.2204 59.4406C10.2163 59.0954 10.2106 58.8405 10.2034 58.676C10.202 58.5129 10.1891 58.2374 10.1649 57.8495C10.1518 57.6834 10.1126 57.3166 10.0475 56.7491C10.0551 56.7198 10.0743 56.706 10.1051 56.7078C10.1301 56.708 10.1602 56.7127 10.1953 56.7218L11.6106 57.0898C11.2396 56.5679 10.9824 56.1131 10.8392 55.7255C10.6171 55.1359 10.5784 54.5628 10.7232 54.0061C10.8558 53.4962 11.1624 53.0629 11.6431 52.7061C12.1194 52.342 12.7796 52.2696 13.6235 52.4891L18.1858 53.6754C18.6546 53.7973 18.994 53.7792 19.2041 53.6211C19.3372 53.5181 19.4792 53.2609 19.6299 52.8496L19.876 52.9136L19.1926 55.542Z" fill="#12141B"/>
<path d="M8.78254 64.2706C8.82923 64.7425 8.91081 65.0567 9.02729 65.2131C9.20509 65.4537 9.55738 65.5716 10.0842 65.5668L14.7798 65.524C15.2279 65.52 15.521 65.4567 15.6592 65.3344C15.7974 65.2181 15.8653 65.0237 15.8628 64.7512C15.8616 64.624 15.8547 64.5272 15.842 64.4607C15.8293 64.4003 15.8075 64.3278 15.7764 64.2433L16.0943 64.2404L16.3182 64.8924C16.3991 65.1278 16.5449 65.514 16.7557 66.0511C16.9665 66.5881 17.072 66.8717 17.0723 66.902C17.0725 66.9323 17.0576 66.9506 17.0274 66.9569C16.9971 66.9632 16.9396 66.9668 16.8549 66.9676L15.6287 66.9787C16.1791 67.5732 16.5593 68.0875 16.7691 68.5216C16.985 68.9556 17.095 69.4027 17.0992 69.8629C17.1049 70.4866 16.8975 70.985 16.477 71.3582C16.2487 71.5541 15.9383 71.7174 15.5459 71.8481C16.0041 72.2921 16.3437 72.6795 16.5647 73.0106C16.9453 73.5824 17.1384 74.168 17.1438 74.7675C17.1527 75.7423 16.762 76.3968 15.9718 76.731C15.5254 76.9228 14.8179 77.0231 13.8491 77.0319L10.0798 77.0662C9.6499 77.0701 9.35709 77.1667 9.20137 77.3558C9.05175 77.5509 8.95499 77.897 8.91107 78.3939L8.67492 78.3961L8.63765 74.2999L8.89196 74.2976C8.94519 74.8239 9.05429 75.1681 9.21927 75.3301C9.38429 75.4981 9.71809 75.5799 10.2207 75.5753L14.1352 75.5397C14.7226 75.5343 15.1549 75.4668 15.4323 75.3371C15.9268 75.1086 16.171 74.6673 16.1651 74.0134C16.1615 73.6198 16.0278 73.2304 15.7639 72.8453C15.6104 72.6226 15.3657 72.3493 15.0297 72.0254L10.3795 72.0677C9.88903 72.0722 9.51742 72.1603 9.26465 72.3322C9.01194 72.5101 8.87903 72.8777 8.86594 73.4349L8.62979 73.437L8.59186 69.2682L8.828 69.266C8.9059 69.8406 9.0485 70.2056 9.2558 70.3612C9.4631 70.5168 9.96941 70.5909 10.7747 70.5835L13.3178 70.5604C14.2503 70.5519 14.8916 70.4855 15.2417 70.3612C15.8332 70.156 16.1261 69.7295 16.1202 69.0816C16.1168 68.7122 16.0106 68.3499 15.8015 67.9945C15.5984 67.6391 15.3321 67.3266 15.0027 67.0571L10.0346 67.1023C9.57437 67.1065 9.2572 67.1881 9.08304 67.3471C8.90893 67.5122 8.8213 67.8642 8.82015 68.4032L8.58401 68.4053L8.5464 64.2728L8.78254 64.2706Z" fill="#12141B"/>
<path d="M21.6142 92.076C21.792 92.4807 21.8665 92.8911 21.8377 93.3072C21.8187 93.5801 21.7517 93.8642 21.6367 94.1594L24.2811 92.9975C24.6193 92.849 24.8351 92.7079 24.9285 92.5742C25.0243 92.4461 25.0101 92.2407 24.8859 91.958C24.8567 91.8915 24.8283 91.8345 24.8009 91.787C24.7734 91.7396 24.7136 91.6335 24.6214 91.469L24.8959 91.3484L25.3701 91.9536C25.5462 92.1738 25.7251 92.3928 25.9068 92.6106C26.0885 92.8284 26.254 93.017 26.4033 93.1762C26.47 93.2528 26.5872 93.3765 26.755 93.5475L26.7603 93.6047L25.8798 93.9718C25.5614 94.105 25.2319 94.2432 24.8913 94.3863C24.5562 94.5269 24.2251 94.669 23.8981 94.8127L17.0969 97.7812C16.7365 97.9395 16.5038 98.0947 16.3986 98.2467C16.2935 98.3987 16.3249 98.666 16.493 99.0485C16.5198 99.1095 16.5466 99.1705 16.5734 99.2315C16.6057 99.29 16.6408 99.3473 16.6787 99.4034L16.4043 99.524C16.3786 99.4956 16.0634 99.1546 15.4587 98.5009L14.3945 97.4109L14.4437 97.3199L15.4665 96.8705C14.992 96.7086 14.6327 96.5457 14.3887 96.3817C13.9614 96.0866 13.6308 95.673 13.397 95.1408C12.9829 94.1983 13.0099 93.2738 13.4779 92.367C13.954 91.4634 14.6715 90.8009 15.6306 90.3795C16.8336 89.851 18.0181 89.7472 19.1843 90.0681C20.3585 90.3922 21.1685 91.0615 21.6142 92.076ZM14.6312 95.5112C14.8212 95.9436 15.1022 96.2369 15.4741 96.3909C15.846 96.545 16.1457 96.5721 16.373 96.4722L19.9404 94.9048C20.661 94.5881 21.083 94.1712 21.2064 93.6541C21.3376 93.14 21.3229 92.7 21.1622 92.3341C20.8552 91.6356 20.3061 91.2287 19.5147 91.1135C18.7288 90.9958 17.8841 91.1355 16.9804 91.5325C16.0879 91.9247 15.3825 92.4793 14.8642 93.1965C14.3484 93.9192 14.2707 94.6907 14.6312 95.5112Z" fill="#12141B"/>
<path d="M21.5524 101.625C22.5243 100.912 23.5703 100.619 24.6904 100.744C25.819 100.87 26.7395 101.419 27.4518 102.391C28.1606 103.358 28.4302 104.392 28.2607 105.492C28.0911 106.592 27.4789 107.529 26.4239 108.302C25.452 109.014 24.3816 109.326 23.2126 109.237C22.0437 109.148 21.1012 108.615 20.3853 107.638C19.698 106.7 19.4606 105.654 19.6732 104.5C19.8857 103.346 20.5121 102.387 21.5524 101.625ZM26.8619 102.508C26.5792 102.122 26.207 101.881 25.7454 101.784C24.943 101.621 23.9972 101.939 22.9081 102.737C22.0388 103.374 21.3712 104.164 20.9055 105.106C20.4433 106.053 20.4682 106.875 20.9801 107.574C21.381 108.121 21.9403 108.356 22.6582 108.281C23.3796 108.21 24.1481 107.875 24.9637 107.278C25.8086 106.658 26.4669 105.887 26.9385 104.963C27.4101 104.039 27.3846 103.221 26.8619 102.508Z" fill="#12141B"/>
<path d="M26.7648 114.352C27.2134 114.697 27.5685 114.876 27.8303 114.889C28.0961 114.897 28.4007 114.718 28.744 114.35L34.8054 107.869C35.0784 107.577 35.2422 107.353 35.297 107.197C35.3823 106.929 35.29 106.668 35.0202 106.416C34.9583 106.358 34.8835 106.301 34.7959 106.244C34.7128 106.191 34.6035 106.126 34.4681 106.049L34.6729 105.83C35.4188 106.229 36.336 106.689 37.4245 107.21C37.4554 107.238 37.4607 107.268 37.4403 107.299C37.4243 107.334 37.375 107.395 37.2923 107.484L29.8536 115.438C29.4938 115.823 29.3264 116.135 29.3516 116.374C29.3808 116.608 29.5889 116.936 29.9756 117.355L29.8019 117.541L26.5911 114.538L26.7648 114.352Z" fill="#12141B"/>
<path d="M36.1654 117.41C36.8111 116.393 37.6784 115.738 38.7671 115.447C39.8641 115.153 40.9214 115.33 41.9387 115.975C42.951 116.618 43.5785 117.482 43.8213 118.569C44.0641 119.655 43.835 120.75 43.1341 121.855C42.4884 122.872 41.6049 123.552 40.4837 123.895C39.3626 124.238 38.2908 124.084 37.2683 123.435C36.2867 122.812 35.6847 121.925 35.4623 120.772C35.2398 119.62 35.4742 118.499 36.1654 117.41ZM41.432 116.299C41.0281 116.043 40.5935 115.953 40.1283 116.031C39.3217 116.172 38.5567 116.812 37.8331 117.952C37.2555 118.862 36.9213 119.841 36.8306 120.888C36.745 121.938 37.0677 122.695 37.7988 123.159C38.3714 123.522 38.9781 123.538 39.6191 123.206C40.2652 122.878 40.8592 122.286 41.4011 121.433C41.9625 120.548 42.2946 119.59 42.3974 118.558C42.5002 117.526 42.1784 116.773 41.432 116.299Z" fill="#12141B"/>
<path d="M45.3966 127.236C45.9331 127.393 46.3124 127.438 46.5345 127.368C46.7588 127.294 46.9591 127.031 47.1356 126.579L48.6274 122.764C48.8457 122.206 48.9476 121.788 48.9331 121.509C48.9264 121.227 48.7849 121.031 48.5085 120.923C48.4521 120.901 48.3727 120.88 48.2702 120.859C48.1756 120.835 48.0731 120.815 47.9627 120.798L48.0719 120.519C48.4375 120.532 48.8126 120.545 49.1972 120.559C49.5819 120.573 49.849 120.58 49.9986 120.58C50.3225 120.583 50.6603 120.575 51.0121 120.557C51.0516 120.572 51.0686 120.595 51.0633 120.625C51.0635 120.658 51.046 120.719 51.0107 120.81L50.4682 122.197C51.0254 121.836 51.5255 121.58 51.9685 121.428C52.4171 121.278 52.8219 121.274 53.1828 121.415C53.4704 121.528 53.6703 121.706 53.7824 121.952C53.8967 122.192 53.9031 122.441 53.8017 122.701C53.7113 122.932 53.5647 123.099 53.362 123.202C53.1649 123.307 52.962 123.318 52.7533 123.237C52.539 123.153 52.3605 122.969 52.2178 122.686C52.0806 122.405 51.95 122.24 51.826 122.191C51.6286 122.114 51.3233 122.18 50.9099 122.389C50.4988 122.592 50.2271 122.863 50.0948 123.202L48.603 127.017C48.4134 127.502 48.3938 127.884 48.5444 128.164C48.6972 128.438 49.0381 128.672 49.567 128.866L49.4578 129.145L45.2874 127.515L45.3966 127.236Z" fill="#12141B"/>
<path d="M64.7637 129.79L65.063 129.805C65.1667 130.502 65.3269 131.041 65.5438 131.422C65.9322 132.121 66.5346 132.491 67.351 132.533C67.8046 132.557 68.1677 132.451 68.4405 132.216C68.7197 131.976 68.8695 131.656 68.89 131.257C68.9031 131.003 68.8401 130.754 68.7011 130.511C68.562 130.267 68.3078 130.024 67.9383 129.78L66.9523 129.148C66.229 128.71 65.7024 128.28 65.3725 127.857C65.0426 127.433 64.8918 126.947 64.9201 126.396C64.955 125.719 65.2255 125.175 65.7317 124.765C66.2379 124.354 66.8568 124.168 67.5886 124.205C67.9091 124.222 68.2567 124.3 68.6314 124.441C69.0122 124.582 69.2268 124.653 69.2752 124.656C69.3841 124.662 69.4635 124.65 69.5134 124.623C69.5633 124.595 69.6081 124.549 69.6479 124.484L69.8656 124.495L69.7988 127.029L69.5176 127.015C69.4269 126.422 69.2871 125.957 69.0983 125.62C68.7545 124.996 68.2288 124.666 67.5213 124.629C67.098 124.608 66.7587 124.72 66.5034 124.968C66.2481 125.216 66.1115 125.515 66.0934 125.866C66.0648 126.422 66.4565 126.939 67.2686 127.418L68.4329 128.123C69.6848 128.891 70.2869 129.741 70.2389 130.672C70.2022 131.385 69.9031 131.955 69.3415 132.381C68.786 132.807 68.0759 132.998 67.2112 132.953C66.8483 132.935 66.4402 132.853 65.9868 132.709C65.5335 132.564 65.2645 132.489 65.1798 132.485C65.1072 132.481 65.0423 132.505 64.9851 132.557C64.9282 132.603 64.8828 132.661 64.8488 132.732L64.6129 132.72L64.7637 129.79Z" fill="#12141B"/>
<path d="M75.6765 120.923C75.6448 120.664 75.7076 120.431 75.8651 120.223C76.0225 120.014 76.2335 119.894 76.4979 119.861C76.7564 119.829 76.9872 119.896 77.1903 120.06C77.3988 120.217 77.5192 120.428 77.5517 120.693C77.5834 120.951 77.5175 121.185 77.3541 121.394C77.1959 121.597 76.9876 121.714 76.7291 121.745C76.4647 121.778 76.2313 121.715 76.0288 121.557C75.8256 121.393 75.7082 121.181 75.6765 120.923ZM75.9198 132.451C76.5556 132.312 76.948 132.154 77.0971 131.977C77.2454 131.794 77.2765 131.351 77.1902 130.648L76.6625 126.347C76.6145 125.957 76.5543 125.69 76.4818 125.546C76.3614 125.311 76.1569 125.211 75.8684 125.246C75.8023 125.254 75.737 125.268 75.6723 125.288C75.6137 125.308 75.4393 125.378 75.1491 125.499L75.1148 125.22L75.487 125.046C76.4967 124.574 77.1982 124.226 77.5916 124.001C77.751 123.908 77.8547 123.858 77.9028 123.853C77.92 123.893 77.9316 123.937 77.9375 123.986L78.7318 130.458C78.8159 131.144 78.9498 131.563 79.1334 131.718C79.3231 131.871 79.7124 131.937 80.3013 131.913L80.3322 132.166L75.9508 132.703L75.9198 132.451Z" fill="#12141B"/>
<path d="M87.3211 121.913L87.4996 122.543L85.717 123.048L87.1269 128.086C87.2525 128.529 87.3854 128.853 87.5255 129.059C87.7793 129.421 88.1101 129.545 88.5179 129.429C88.7276 129.369 88.8942 129.269 89.0176 129.127C89.1468 128.983 89.2798 128.775 89.4168 128.504L89.6985 128.632L89.5806 128.948C89.3933 129.442 89.1547 129.821 88.8647 130.086C88.5748 130.351 88.2725 130.528 87.9579 130.617C87.2705 130.812 86.7177 130.638 86.2996 130.096C86.0714 129.802 85.8739 129.361 85.707 128.772L84.2052 123.477L83.2528 123.747C83.2187 123.738 83.1904 123.727 83.168 123.714C83.1514 123.7 83.1389 123.679 83.1307 123.649C83.1142 123.591 83.1134 123.544 83.1285 123.508C83.1477 123.465 83.2107 123.366 83.3174 123.209C83.6252 122.763 83.8376 122.414 83.9545 122.16C84.0756 121.899 84.3398 121.233 84.7469 120.16C84.8227 120.139 84.868 120.132 84.883 120.141C84.9037 120.147 84.9249 120.189 84.9464 120.264L85.556 122.414L87.3211 121.913Z" fill="#12141B"/>
<path d="M103.72 117.348C103.274 117.93 102.942 118.464 102.723 118.95C102.306 119.886 102.289 120.637 102.674 121.203C102.984 121.658 103.363 121.891 103.81 121.902C104.1 121.909 104.366 121.831 104.606 121.668C104.936 121.443 105.189 121.135 105.363 120.746C105.542 120.353 105.535 120.014 105.341 119.728L103.72 117.348ZM101.691 122.63C101.196 121.905 101.147 121.052 101.542 120.072C101.798 119.459 102.439 118.425 103.465 116.973L103.03 116.334C102.683 115.824 102.391 115.503 102.154 115.371C101.756 115.151 101.289 115.224 100.753 115.588C100.498 115.762 100.299 115.992 100.158 116.279C100.02 116.571 100.03 116.835 100.191 117.07C100.232 117.13 100.314 117.224 100.438 117.352C100.558 117.475 100.632 117.557 100.659 117.597C100.85 117.877 100.89 118.135 100.78 118.372C100.719 118.508 100.616 118.626 100.471 118.725C100.246 118.878 100.024 118.923 99.8049 118.86C99.5825 118.791 99.41 118.667 99.2874 118.487C99.0488 118.136 99.0153 117.625 99.1868 116.951C99.3599 116.269 99.8644 115.644 100.7 115.075C101.671 114.414 102.544 114.281 103.319 114.677C103.739 114.896 104.174 115.336 104.624 115.997L106.674 119.007C106.871 119.298 107.028 119.484 107.143 119.567C107.341 119.718 107.542 119.724 107.748 119.584C107.863 119.506 107.946 119.423 107.997 119.337C108.048 119.251 108.121 119.077 108.214 118.816L108.48 119.207C108.452 119.511 108.389 119.789 108.289 120.04C108.138 120.421 107.917 120.71 107.627 120.908C107.286 121.139 106.964 121.198 106.659 121.083C106.359 120.965 106.097 120.759 105.874 120.464C105.719 121.053 105.56 121.52 105.399 121.864C105.128 122.444 104.787 122.874 104.376 123.154C103.946 123.447 103.47 123.55 102.951 123.465C102.427 123.374 102.007 123.096 101.691 122.63Z" fill="#12141B"/>
<path d="M112.759 116.713C113.037 116.329 113.184 116.04 113.201 115.846C113.227 115.548 113.042 115.226 112.644 114.88L109.102 111.798C108.763 111.503 108.502 111.356 108.318 111.356C108.137 111.352 107.957 111.452 107.778 111.658C107.695 111.754 107.636 111.831 107.601 111.889C107.571 111.943 107.539 112.011 107.506 112.095L107.266 111.886L107.531 111.25C107.627 111.02 107.774 110.634 107.972 110.093C108.171 109.551 108.28 109.269 108.3 109.246C108.32 109.223 108.343 109.219 108.37 109.235C108.397 109.25 108.442 109.285 108.506 109.341L109.431 110.146C109.413 109.336 109.47 108.699 109.601 108.235C109.727 107.767 109.941 107.359 110.243 107.012C110.653 106.541 111.139 106.306 111.701 106.306C112.002 106.31 112.342 106.394 112.723 106.557C112.674 105.92 112.677 105.405 112.731 105.011C112.825 104.33 113.069 103.764 113.463 103.312C114.103 102.576 114.829 102.346 115.642 102.62C116.104 102.772 116.7 103.166 117.431 103.802L120.274 106.277C120.599 106.559 120.882 106.681 121.124 106.642C121.365 106.596 121.667 106.401 122.03 106.058L122.208 106.213L119.519 109.303L119.327 109.136C119.636 108.707 119.783 108.377 119.767 108.147C119.755 107.911 119.559 107.629 119.18 107.299L116.227 104.729C115.784 104.344 115.415 104.108 115.122 104.021C114.6 103.864 114.125 104.032 113.695 104.525C113.437 104.822 113.279 105.202 113.221 105.666C113.188 105.934 113.19 106.301 113.226 106.766L116.735 109.819C117.105 110.141 117.441 110.321 117.745 110.36C118.052 110.395 118.395 110.208 118.774 109.799L118.952 109.954L116.216 113.1L116.038 112.945C116.361 112.463 116.496 112.095 116.444 111.841C116.392 111.587 116.062 111.196 115.455 110.667L113.536 108.998C112.833 108.386 112.309 108.01 111.964 107.871C111.385 107.632 110.883 107.757 110.458 108.246C110.215 108.525 110.055 108.866 109.975 109.271C109.892 109.672 109.884 110.082 109.952 110.502L113.7 113.764C114.047 114.066 114.338 114.215 114.574 114.211C114.814 114.203 115.113 113.998 115.471 113.595L115.649 113.751L112.937 116.868L112.759 116.713Z" fill="#12141B"/>
<path d="M118.759 94.5112C119.138 93.7458 119.735 93.2068 120.551 92.8942C121.362 92.579 122.254 92.6615 123.225 93.1417L120.67 98.3124C121.956 98.8805 123.015 99.0489 123.845 98.8175C124.675 98.5862 125.265 98.1176 125.613 97.4119C125.895 96.8419 125.983 96.2877 125.878 95.7493C125.772 95.2109 125.527 94.6407 125.143 94.0386L125.381 93.8019C125.961 94.3651 126.392 95.0983 126.675 96.0015C126.961 96.8992 126.885 97.7905 126.448 98.6754C125.944 99.696 125.168 100.295 124.121 100.474C123.076 100.646 122.052 100.485 121.048 99.9883C119.956 99.4491 119.174 98.6607 118.701 97.623C118.227 96.5853 118.247 95.5481 118.759 94.5112ZM119.12 95.2772C118.815 95.8961 118.855 96.5038 119.243 97.1005C119.45 97.4191 119.757 97.7264 120.165 98.0223L121.863 94.586C121.291 94.3775 120.835 94.2808 120.497 94.2959C119.888 94.3258 119.429 94.6529 119.12 95.2772Z" fill="#12141B"/>
<path d="M122.93 83.6263L123.559 83.8064L123.049 85.5876L128.073 87.046C128.515 87.1727 128.861 87.2308 129.11 87.2202C129.551 87.1955 129.831 86.9795 129.947 86.572C130.007 86.3624 130.01 86.1678 129.954 85.9881C129.9 85.8026 129.794 85.58 129.635 85.3204L129.892 85.1484L130.099 85.4155C130.42 85.835 130.616 86.2377 130.688 86.6237C130.76 87.0097 130.751 87.3598 130.661 87.6742C130.465 88.3611 130.026 88.7392 129.344 88.8086C128.974 88.8474 128.495 88.7826 127.907 88.6141L122.616 87.0982L122.343 88.0499C122.317 88.074 122.293 88.0923 122.271 88.1048C122.25 88.1114 122.225 88.1106 122.196 88.1022C122.138 88.0855 122.097 88.0614 122.075 88.0298C122.048 87.9907 121.997 87.8846 121.92 87.7115C121.704 87.2148 121.519 86.8499 121.365 86.6169C121.207 86.3765 120.78 85.8006 120.083 84.8893C120.105 84.8136 120.124 84.7716 120.138 84.7633C120.155 84.7492 120.201 84.753 120.277 84.7747L122.425 85.39L122.93 83.6263Z" fill="#12141B"/>
<path d="M132.396 76.6563C133.002 76.7363 133.538 77.0299 134.002 77.5371C134.467 78.0442 134.78 78.565 134.941 79.0994L134.559 79.2229C134.31 78.6038 134.011 78.1613 133.662 77.8952C133.313 77.6232 133.012 77.4706 132.76 77.4373C132.676 77.4262 132.619 77.4461 132.587 77.4969C132.556 77.5478 132.537 77.6032 132.529 77.6633L132.512 78.2749C132.479 78.5271 132.367 78.7475 132.178 78.9362C131.982 79.1241 131.728 79.1975 131.416 79.1563C131.176 79.1246 130.953 79.0067 130.748 78.8025C130.543 78.5983 130.466 78.2981 130.518 77.9019C130.568 77.5237 130.763 77.2043 131.103 76.9437C131.437 76.6824 131.868 76.5866 132.396 76.6563Z" fill="#12141B"/>
<path d="M123.295 60.6335C123.157 59.8894 123.231 59.2134 123.519 58.6057C123.799 57.9932 124.169 57.6443 124.627 57.5591C124.823 57.5226 125.021 57.5568 125.219 57.6617C125.411 57.7676 125.534 57.9635 125.587 58.2492C125.625 58.4576 125.588 58.6554 125.475 58.8427C125.361 59.0241 125.174 59.1759 124.913 59.2982L124.504 59.485C124.203 59.621 124.005 59.7965 123.909 60.0113C123.821 60.231 123.806 60.5016 123.866 60.8231C123.992 61.5017 124.397 62.0209 125.079 62.3806C125.755 62.7355 126.584 62.8217 127.566 62.6392C128.465 62.4721 129.224 62.0663 129.844 61.4215C130.462 60.7709 130.69 60.0079 130.527 59.1328C130.412 58.5136 130.107 58.0006 129.613 57.5936C129.33 57.3628 128.903 57.1218 128.333 56.8706L128.438 56.5923C129.216 56.7989 129.848 57.0511 130.334 57.3487C131.266 57.9208 131.819 58.6802 131.995 59.6268C132.168 60.5555 131.954 61.4451 131.355 62.2956C130.755 63.146 129.827 63.6879 128.571 63.9213C127.339 64.1503 126.207 63.9572 125.175 63.3422C124.143 62.7271 123.516 61.8242 123.295 60.6335Z" fill="#12141B"/>
<path d="M125.747 52.3059C124.636 52.7704 123.55 52.8106 122.49 52.4265C121.423 52.0391 120.657 51.2894 120.192 50.1776C119.73 49.0713 119.71 48.0033 120.133 46.9735C120.556 45.9437 121.371 45.1766 122.578 44.6724C123.689 44.2078 124.803 44.1559 125.919 44.5168C127.034 44.8776 127.825 45.6167 128.292 46.7341C128.74 47.8069 128.726 48.8793 128.248 49.9516C127.771 51.0239 126.937 51.8086 125.747 52.3059ZM120.793 50.2022C120.977 50.6435 121.283 50.9656 121.709 51.1682C122.45 51.5145 123.444 51.4273 124.69 50.9067C125.685 50.4912 126.519 49.8802 127.193 49.0737C127.864 48.2616 128.033 47.4561 127.699 46.6572C127.437 46.0314 126.949 45.6711 126.233 45.5763C125.515 45.476 124.69 45.6207 123.757 46.0106C122.79 46.4145 121.969 47.0101 121.294 47.7975C120.619 48.5849 120.452 49.3864 120.793 50.2022Z" fill="#12141B"/>
<path d="M123.751 38.6418C123.458 38.3219 123.199 38.1381 122.973 38.0903C122.738 38.041 122.393 38.1769 121.938 38.498L118.175 41.1522C117.858 41.3756 117.656 41.5624 117.569 41.7125C117.448 41.9391 117.49 42.1984 117.696 42.4904C117.727 42.5349 117.763 42.5802 117.803 42.6262C117.839 42.6672 117.886 42.7189 117.945 42.7812L117.685 42.9644C117.483 42.8034 116.991 42.4316 116.21 41.849L115.487 41.3136C115.463 41.279 115.461 41.2505 115.483 41.2281C115.5 41.2007 115.532 41.1713 115.576 41.1399L116.667 40.3704C115.92 40.2153 115.377 40.0649 115.037 39.9193C114.523 39.7043 114.119 39.389 113.826 38.9734C113.588 38.6369 113.468 38.2621 113.466 37.8488C113.465 37.0492 113.947 36.3091 114.912 35.6285L118.378 33.1836C118.735 32.9324 118.941 32.6791 118.998 32.4239C119.055 32.1688 118.968 31.8712 118.735 31.5312L118.943 31.3846L121.179 34.554L120.971 34.7006C120.667 34.3742 120.39 34.1917 120.14 34.1529C119.885 34.1176 119.506 34.2779 119.001 34.6339L115.832 36.8694C115.406 37.1695 115.111 37.4965 114.945 37.8503C114.775 38.2076 114.84 38.599 115.14 39.0245C115.346 39.3165 115.654 39.5436 116.065 39.7058C116.297 39.7938 116.639 39.8789 117.09 39.9611L121.246 37.0294C121.603 36.7781 121.787 36.5296 121.799 36.284C121.806 36.0419 121.694 35.7467 121.463 35.3983L121.671 35.2517L123.959 38.4952L123.751 38.6418Z" fill="#12141B"/>
<path d="M113.269 29.4377L113.05 29.2332C113.419 28.6335 113.643 28.118 113.723 27.6869C113.876 26.9018 113.653 26.2305 113.055 25.6728C112.723 25.3629 112.378 25.2099 112.018 25.2138C111.649 25.2179 111.329 25.3661 111.056 25.6583C110.883 25.8442 110.771 26.0752 110.72 26.3511C110.67 26.6271 110.708 26.9771 110.834 27.4011L111.181 28.5202C111.453 29.3205 111.579 29.9888 111.559 30.525C111.539 31.0612 111.341 31.5308 110.965 31.9337C110.502 32.4295 109.945 32.6715 109.293 32.6598C108.642 32.648 108.048 32.3922 107.512 31.8923C107.278 31.6734 107.062 31.3895 106.866 31.0407C106.665 30.6877 106.547 30.4947 106.512 30.4617C106.432 30.3873 106.364 30.3447 106.308 30.3338C106.252 30.3229 106.188 30.3294 106.116 30.3533L105.957 30.2045L107.639 28.3084L107.845 28.5005C107.533 29.0126 107.34 29.4584 107.268 29.8379C107.129 30.5367 107.319 31.1278 107.837 31.6112C108.147 31.9004 108.479 32.0324 108.834 32.0073C109.188 31.9822 109.486 31.8413 109.725 31.5845C110.105 31.1772 110.139 30.5291 109.825 29.6403L109.389 28.3508C108.925 26.9573 109.011 25.9197 109.647 25.2379C110.135 24.7155 110.73 24.4721 111.434 24.5078C112.134 24.5393 112.8 24.8504 113.433 25.4412C113.699 25.6891 113.958 26.0143 114.212 26.4168C114.466 26.8193 114.624 27.0495 114.686 27.1073C114.739 27.1569 114.804 27.1804 114.881 27.1777C114.954 27.1795 115.026 27.1641 115.098 27.1316L115.271 27.2928L113.269 29.4377Z" fill="#12141B"/>
<path d="M39.7406 17.1966C39.2988 17.5393 39.0409 17.821 38.9671 18.0416C38.8965 18.2673 38.9926 18.5837 39.2552 18.9907L41.4763 22.4327C41.8014 22.9364 42.0812 23.2639 42.3157 23.4152C42.5485 23.5749 42.7895 23.5743 43.0388 23.4134C43.0897 23.3806 43.1535 23.3286 43.2301 23.2575C43.305 23.1948 43.3816 23.1238 43.4601 23.0443L43.6226 23.2962C43.3982 23.5851 43.1679 23.8814 42.9316 24.1853C42.6952 24.4891 42.5333 24.7017 42.4459 24.823C42.2538 25.0838 42.0624 25.3623 41.8715 25.6584C41.8359 25.6814 41.8074 25.6818 41.7859 25.6596C41.7593 25.6408 41.7197 25.5906 41.6672 25.5092L40.8595 24.2576C40.8261 24.9205 40.7414 25.4761 40.6053 25.9242C40.4642 26.3756 40.2309 26.7063 39.9052 26.9164C39.6457 27.0839 39.3837 27.1413 39.1191 27.0886C38.8578 27.041 38.6516 26.9002 38.5006 26.6662C38.366 26.4576 38.3163 26.241 38.3516 26.0165C38.3818 25.7952 38.491 25.6238 38.6792 25.5024C38.8726 25.3776 39.1259 25.3402 39.4393 25.3903C39.7475 25.4436 39.9576 25.4341 40.0695 25.3619C40.2476 25.247 40.3728 24.9608 40.4452 24.5033C40.5208 24.051 40.4601 23.6722 40.2631 23.3669L38.042 19.9249C37.7597 19.4874 37.4609 19.2477 37.1458 19.2061C36.8339 19.1695 36.4447 19.309 35.9781 19.6245L35.8156 19.3726L39.5781 16.9447L39.7406 17.1966Z" fill="#12141B"/>
<defs>
<clipPath id="clip0_869_358">
<rect width="36.7826" height="36.7826" fill="white" transform="translate(52.1089 52.1084)"/>
</clipPath>
</defs>
</svg>
